<svg viewBox="0 148 511 170" xmlns="http://www.w3.org/2000/svg" style="max-height: 500px" width="511" height="170">
  <defs>
    
      
    
  </defs>
  <text y="227.601" x="453.849" style="white-space: pre; fill: rgb(51, 51, 51); font-family: Arial, sans-serif; font-size: 28px;"> </text>
  <path transform="matrix(0.965926, 0.258819, -0.258819, 0.965926, -0.000002, 0.000004)" style="fill: rgb(25, 117, 140); transform-origin: 42.607px 192.073px;" d="M 34.946 195.53 C 30.432 189.319 26.491 183.227 25.335 175.76 C 28.879 173.118 32.588 174.29 36.091 174.768 C 43.551 175.786 50.649 177.97 57.131 181.991 C 59.461 183.436 60.238 185.212 59.73 187.816 C 58.552 193.856 57.941 199.963 57.735 206.115 C 57.62 209.564 56.292 210.965 52.64 209.439 C 45.543 206.473 40.025 201.591 34.946 195.53 Z" stroke="none" opacity="1.000000"/>
  <path transform="matrix(0.965926, 0.258819, -0.258819, 0.965926, 0.000003, -0.000002)" style="fill: rgb(25, 117, 140); transform-origin: 30.328px 218.305px;" d="M 41.805 206.778 C 49.611 207.995 49.914 213.575 50.404 219.374 C 51.41 231.287 51.551 231.176 39.786 230.159 C 29.058 229.232 20.085 224.652 12.293 217.486 C 8.721 214.201 9.007 212.701 13.31 210.6 C 22.249 206.232 31.631 205.078 41.805 206.778 Z" stroke="none" opacity="1.000000"/>
  <path transform="matrix(-0.945519, -0.325568, 0.325568, -0.945519, -0.000098, 0.000018)" style="fill: rgb(25, 117, 140); transform-origin: 452.419px 274.462px;" d="M 444.759 277.919 C 440.245 271.708 436.304 265.616 435.148 258.149 C 438.692 255.507 442.401 256.679 445.904 257.157 C 453.364 258.175 460.462 260.359 466.945 264.38 C 469.275 265.825 470.052 267.601 469.544 270.205 C 468.366 276.245 467.755 282.352 467.549 288.504 C 467.434 291.953 466.106 293.354 462.454 291.828 C 455.356 288.862 449.838 283.98 444.759 277.919 Z" stroke="none" opacity="1.000000"/>
  <path transform="matrix(-0.945519, -0.325568, 0.325568, -0.945519, 0.000062, 0.000047)" style="fill: rgb(25, 117, 140); transform-origin: 466.5px 249.151px;" d="M 477.977 237.624 C 485.783 238.841 486.086 244.421 486.576 250.22 C 487.582 262.133 487.723 262.022 475.958 261.005 C 465.23 260.078 456.256 255.498 448.464 248.332 C 444.893 245.047 445.179 243.547 449.481 241.446 C 458.42 237.078 467.803 235.924 477.977 237.624 Z" stroke="none" opacity="1.000000"/>
  <text y="268.991" x="133.043" transform="matrix(1.642494, 0, 0, 1.962332, -153.267166, -271.266235)" style="fill: rgb(51, 51, 51); font-family: Futura; font-size: 27.3787px; font-weight: 700; white-space: pre;">TAMARIND BIO</text>
</svg>